<?xml version="1.0" standalone="no"?>
<!DOCTYPE svg PUBLIC "-//W3C//DTD SVG 1.1//EN" "http://www.w3.org/Graphics/SVG/1.1/DTD/svg11.dtd">
<svg xmlns="http://www.w3.org/2000/svg">
<metadata>Copyright (C) 2015 by original authors @ fontello.com</metadata>
<defs>
<font id="fontello" horiz-adv-x="1000" >
<font-face font-family="fontello" font-weight="400" font-stretch="normal" units-per-em="1000" ascent="850" descent="-150" />
<missing-glyph horiz-adv-x="1000" />
<glyph glyph-name="icon-menu" unicode="&#xe800;" d="m1143 707h-1072c-42 0-71 29-71 72s29 71 71 71h1072c43 0 71-29 71-71s-28-72-71-72z m0-286h-500c-43 0-72-28-72-71s29-71 72-71h500c43 0 71 28 71 71s-28 71-71 71z m0-428h-286c-43 0-71-29-71-72s28-71 71-71h286c43 0 71 29 71 71s-28 72-71 72z" horiz-adv-x="1214" />
<glyph glyph-name="icon-minimise-02" unicode="&#xe801;" d="m867 450h-734c-53 0-100-47-100-100s47-100 100-100h734c53 0 100 47 100 100s-47 100-100 100z" horiz-adv-x="1000" />
<glyph glyph-name="icon-minimise" unicode="&#xe802;" d="m900 450h-800c-60 0-100-40-100-100s40-100 100-100h800c60 0 100 40 100 100s-40 100-100 100z" horiz-adv-x="1000" />
<glyph glyph-name="agencies-01" unicode="&#xe803;" d="m475 460c0-17-15-35-35-35h-107c-18 0-35 15-35 35v108c0 17 15 35 35 35h107c18 0 35-15 35-35v-108z m-50 90h-75v-75h75v75z m275-90c0-17-15-35-35-35h-107c-18 0-35 15-35 35v108c0 17 15 35 35 35h107c18 0 35-15 35-35v-108z m-125 15h75v75h-75v-75z m-100-240c0-17-15-35-35-35h-107c-18 0-35 15-35 35v108c0 17 15 35 35 35h107c18 0 35-15 35-35v-108z m-50 90h-75v-75h75v75z m275-90c0-17-15-35-35-35h-107c-18 0-35 15-35 35v108c0 17 15 35 35 35h107c18 0 35-15 35-35v-108z m-125 15h75v75h-75v-75z m325-400h-475v225h-75v-225h-250c-15 0-25 10-25 25s10 25 25 25h75v775h-22c-28 0-53 25-53 55v65c0 30 25 55 53 55h692c30 0 55-25 55-55v-62c0-33-25-58-55-58h-20v-775h75c15 0 25-10 25-25s-10-25-25-25z m-747 875h692c3 0 5 3 5 5v65c0 3-2 5-5 5h-692c0 0-3-2-3-5v-62c0-5 3-8 3-8z m322-650v-175h300v775h-550v-775h75v175c0 28 23 50 50 50h75c28 0 50-22 50-50z" horiz-adv-x="1000" />
<glyph glyph-name="icon-agencies-02" unicode="&#xe804;" d="m550 675h-100c-15 0-25-10-25-25s10-25 25-25h100c15 0 25 10 25 25s-10 25-25 25z m0-100h-100c-15 0-25-10-25-25s10-25 25-25h100c15 0 25 10 25 25s-10 25-25 25z m-117-107c-5-5-8-10-8-18 0-7 3-12 8-17 5-5 10-8 17-8 8 0 13 3 18 8 5 5 7 12 7 17 0 8-2 13-7 18-10 10-25 10-35 0z m-133-293h400c15 0 25 10 25 25s-10 25-25 25h-400c-15 0-25-10-25-25s10-25 25-25z m425-75c0 15-10 25-25 25h-400c-15 0-25-10-25-25s10-25 25-25h400c15 0 25 10 25 25z m-275-75h-75c-15 0-25-10-25-25s10-25 25-25h75c15 0 25 10 25 25s-10 25-25 25z m-250-175h-25-117c-15 0-25 10-25 25s10 25 25 25h92v375c0 43 33 75 75 75h75v350c0 43 33 75 75 75h50v50c0 15 10 25 25 25s25-10 25-25v-50h25v25c0 15 10 25 25 25s25-10 25-25v-25h75c43 0 75-32 75-75v-350h75c43 0 75-32 75-75v-375h95c15 0 25-10 25-25s-10-25-25-25h-120-25-600z m425 125h-50v-75h50v75z m-275 375h300v350c0 15-10 25-25 25h-250c-15 0-25-10-25-25v-350z m-150-450h325v100c0 15 10 25 25 25h100c15 0 25-10 25-25v-100h125v375c0 15-10 25-25 25h-550c-15 0-25-10-25-25v-375z" horiz-adv-x="1000" />
<glyph glyph-name="icon-agencies-03" unicode="&#xe805;" d="m83-150c-15 0-25 10-25 25s10 25 25 25h17v550c0 43 33 75 75 75h25v50c0 15 10 25 25 25s25-10 25-25v-50h25v25c0 15 10 25 25 25s25-10 25-25v-25h125v175c0 43 33 75 75 75h25v50c0 15 10 25 25 25s25-10 25-25v-50h25v25c0 15 10 25 25 25s25-10 25-25v-25h150c43 0 75-32 75-75v-800h45c15 0 25-10 25-25s-10-25-25-25h-862z m317 125h-50v-75h50v75z m350 0h-50v-75h50v75z m-250 725v-180c30-10 50-37 50-70v-550h100v100c0 15 10 25 25 25h100c15 0 25-10 25-25v-100h50v800c0 15-10 25-25 25h-300c-15 0-25-10-25-25z m-350-800h150v100c0 15 10 25 25 25h100c15 0 25-10 25-25v-100h50v550c0 15-10 25-25 25h-300c-15 0-25-10-25-25v-550z m425 725h200c15 0 25 10 25 25s-10 25-25 25h-200c-15 0-25-10-25-25s10-25 25-25z m0-100h200c15 0 25 10 25 25s-10 25-25 25h-200c-15 0-25-10-25-25s10-25 25-25z m200-50h-150c-15 0-25-10-25-25s10-25 25-25h150c15 0 25 10 25 25s-10 25-25 25z m0-100h-150c-15 0-25-10-25-25s10-25 25-25h150c15 0 25 10 25 25s-10 25-25 25z m0-100h-150c-15 0-25-10-25-25s10-25 25-25h150c15 0 25 10 25 25s-10 25-25 25z m-550 100h200c15 0 25 10 25 25s-10 25-25 25h-200c-15 0-25-10-25-25s10-25 25-25z m0-100h200c15 0 25 10 25 25s-10 25-25 25h-200c-15 0-25-10-25-25s10-25 25-25z m100-100c15 0 25 10 25 25s-10 25-25 25h-100c-15 0-25-10-25-25s10-25 25-25h100z m83 43c-5-5-8-10-8-18 0-7 3-12 8-17 5-5 12-8 17-8s13 3 18 8c5 5 7 12 7 17 0 8-2 13-7 18-10 10-25 10-35 0z" horiz-adv-x="1000" />
<glyph glyph-name="icon-arrow-down" unicode="&#xe806;" d="m830 620l-330-330-330 330c-40 40-100 40-140 0s-40-100 0-140l400-400c20-20 40-30 70-30s50 10 70 30l400 400c40 40 40 100 0 140s-100 40-140 0z" horiz-adv-x="1000" />
<glyph glyph-name="arrow-up" unicode="&#xe807;" d="m570 620c-40 40-100 40-140 0l-400-400c-40-40-40-100 0-140s100-40 140 0l330 330 330-330c20-20 40-30 70-30s50 10 70 30c40 40 40 100 0 140l-400 400z" horiz-adv-x="1000" />
<glyph glyph-name="icon-bookings" unicode="&#xe808;" d="m680 335l-222-222-83 82c-10 10-25 10-35 0s-10-25 0-35l100-100c5-5 13-7 18-7s12 2 17 7l240 240c10 10 10 25 0 35s-27 10-35 0z m-680-375v658c0 60 50 107 110 107h90v50c0 38 38 70 75 70s75-32 75-70v-50h300v50c0 38 38 70 75 70s75-32 75-70v-50h90c60 0 110-47 110-107v-656c0-60-50-110-110-110h-780c-60-2-110 48-110 108z m950 0v515h-900v-515c0-33 28-60 60-60h780c33 0 60 27 60 60z m-250 690c0-17 8-30 25-30s25 13 25 30v125c0 18-7 30-25 30s-25-12-25-30v-125z m-450 0c0-17 8-30 25-30s25 13 25 30v125c0 18-7 30-25 30s-25-12-25-30v-125z m-200-32v-93h900v93c0 30-27 57-60 57h-90v-25c0-37-37-70-75-70s-75 33-75 70v25h-300v-25c0-37-37-70-75-70s-75 33-75 70v25h-90c-32 0-60-27-60-57z" horiz-adv-x="1000" />
<glyph glyph-name="icon-calendar-view-small" unicode="&#xe809;" d="m1000 650v-650c0-55-45-100-100-100h-800c-55 0-100 45-100 100v650c0 55 45 100 100 100h100v50c0 30 20 50 50 50s50-20 50-50v-50h400v50c0 30 20 50 50 50s50-20 50-50v-50h100c55 0 100-45 100-100z m-900 0v-150h800v150h-100v-50c0-30-20-50-50-50s-50 20-50 50v50h-400v-50c0-30-20-50-50-50s-50 20-50 50v50h-100z m800-650l0 400h-800v-400h800z" horiz-adv-x="1000" />
<glyph glyph-name="icon-calendar-view" unicode="&#xe80a;" d="m300 700v-50h33 335 32v50c0 15 10 25 25 25s25-10 25-25v-50h65c60 0 110-47 110-107v-480c0-60-50-111-110-111h-630c-60-2-110 48-110 108v483c0 60 50 107 110 107h65v50c0 15 10 25 25 25s25-10 25-25z m575-640v315h-750v-315c0-32 28-60 60-60h630c33 0 60 28 60 60z m-575 540v-50c0-15-10-25-25-25s-25 10-25 25v50h-65c-32 0-60-27-60-57v-118h750v118c0 32-27 57-60 57h-65v-50c0-15-10-25-25-25s-25 10-25 25v50h-35-332-33z" horiz-adv-x="1000" />
<glyph glyph-name="check" unicode="&#xe80b;" d="m827 690l-494-500-193 200c-40 40-100 40-140 0s-40-100 0-140l267-267c20-20 46-26 73-26s53 6 73 26l567 567c40 40 40 100 0 140s-113 33-153 0z" horiz-adv-x="1000" />
<glyph glyph-name="icon-dashboard" unicode="&#xe80c;" d="m500 778c-275 0-500-225-500-503 0 0 0 0 0 0 0 0 0 0 0 0 0 0 0 0 0 0 0-110 35-212 100-300 5-8 13-10 20-10 5 0 10 2 15 5 10 7 13 25 5 35-52 73-85 155-90 245h125c15 0 25 10 25 25s-10 25-25 25h-125c5 100 43 193 105 265l65-52c5-3 10-5 15-5 8 0 15 2 20 10 8 10 8 27-2 35l-63 50c75 72 175 117 285 122v-125c0-15 10-25 25-25s25 10 25 25v125c105-5 203-47 278-115l-73-60c-10-10-12-25-2-35 5-5 12-10 20-10 5 0 10 3 15 5l75 63c65-75 107-170 112-275h-150c-15 0-25-10-25-25s10-25 25-25h150c-5-90-35-173-90-245-7-11-5-28 5-36 10-7 28-5 35 5 65 88 100 191 100 301 3 280-222 505-500 505z m-125-495c0 25 8 45 20 65l-105 105c-10 10-10 25 0 35s25 10 35 0l105-105c18 12 40 20 65 20 65 0 120-53 120-120s-52-120-120-120-120 55-120 120z m120 67c-20 0-37-7-50-20 0 0 0 0 0 0 0 0 0 0 0 0-12-12-20-30-20-50 0-37 30-70 70-70s70 30 70 70c0 40-32 70-70 70z" horiz-adv-x="1000" />
<glyph glyph-name="icon-expand-02" unicode="&#xe80d;" d="m867 450h-267v267c0 53-47 100-100 100s-100-47-100-100v-267h-267c-53 0-100-47-100-100s47-100 100-100h267v-267c0-53 47-100 100-100s100 47 100 100v267h267c53 0 100 47 100 100s-47 100-100 100z" horiz-adv-x="1000" />
<glyph glyph-name="icon-expand" unicode="&#xe80e;" d="m900 450h-300v300c0 60-40 100-100 100s-100-40-100-100v-300h-300c-60 0-100-40-100-100s40-100 100-100h300v-300c0-60 40-100 100-100s100 40 100 100v300h300c60 0 100 40 100 100s-40 100-100 100z" horiz-adv-x="1000" />
<glyph glyph-name="icon-expenses-01" unicode="&#xe80f;" d="m500-145c-262 0-475 115-475 255v165 25 135 40 125h0c3 143 210 255 475 255s473-112 475-255h0v-125-42-133-27-163c0-145-207-255-475-255z m-425 768c0-113 195-208 425-208s425 95 425 208-195 207-425 207-425-95-425-207z m0-123v-40c0-110 198-205 425-205 230 0 425 93 425 203v42 5c-77-85-237-142-425-142s-347 57-425 142v-5z m0-175v-25c0-110 198-205 425-205 230 0 425 93 425 203v27 18c-77-83-237-140-425-140-185 0-347 57-425 142v-20z m850-192v50c-77-83-237-140-425-140-185 0-347 57-425 142v-50c0-110 198-205 425-205 230 0 425 93 425 203z" horiz-adv-x="1000" />
<glyph glyph-name="icon-expenses-02" unicode="&#xe810;" d="m950 275l0 0 0-242c0-93-132-166-300-166s-300 73-300 168v230c0 3 0 5 0 10 0 95 133 168 300 168 168-3 298-75 300-168z m-550 0l0 0 0-7c8-53 108-110 250-110 148 0 250 62 250 117 0 55-102 118-250 118-147-3-247-63-250-118z m500-220c-52-45-145-70-250-70s-197 25-250 70v-20c0-55 103-118 250-118s250 60 250 116v22z m0 125c-52-45-145-75-250-75-105 0-195 28-250 73v-28c0-50 103-117 250-117s250 67 250 117v30z m-537 645c175 0 312-75 312-170 0-2 0-5 0-5h0v-160c-7 0-17 0-25 0-20 0-40 0-57-2 20 17 32 37 32 62v13c-55-48-152-78-262-78-110 0-208 30-263 75v-10c0-75 115-117 263-117 17 0 32 0 50 2-25-15-48-32-65-50-95 0-193 20-248 65v-25c0-42 85-97 205-112-2-13-5-25-5-38 0-5 0-7 0-10-77 10-152 35-200 73v-38c0-42 83-97 200-112v-50c-77 10-152 35-200 72v-35c0-47 83-100 200-112v-28c0-7 0-15 3-22-130 15-253 72-253 162v473c0 2 0 5 0 7 0 98 138 170 313 170z m0-50c-155 0-263-62-263-120 0 0 0-2 0-5h0v0c8-55 113-112 263-112 155 0 262 62 262 117s-107 120-262 120z" horiz-adv-x="1000" />
<glyph glyph-name="icon-hrs-worked" unicode="&#xe811;" d="m0 350c0 275 225 500 500 500s500-225 500-500-225-500-500-500-500 225-500 500z m40 0c0-252 208-460 460-460s460 208 460 460-207 460-460 460-460-207-460-460z m230-242c5 0 13 2 18 7l230 218c5 5 7 12 7 17v325c0 15-10 25-25 25s-25-10-25-25v-315l-222-210c-10-10-10-25 0-35 5-5 10-7 17-7z" horiz-adv-x="1000" />
<glyph glyph-name="icon-list-view" unicode="&#xe812;" d="m950 650h-700c-30 0-50-20-50-50s20-50 50-50h700c30 0 50 20 50 50s-20 50-50 50z m-900-100c15 0 25 5 35 15 10 10 15 20 15 35 0 15-5 25-15 35-20 20-50 20-70 0-10-10-15-20-15-35 0-15 5-25 15-35 10-10 20-15 35-15z m900-150h-700c-30 0-50-20-50-50s20-50 50-50h700c30 0 50 20 50 50s-20 50-50 50z m-900-100c15 0 25 5 35 15 10 10 15 20 15 35 0 15-5 25-15 35-20 20-55 20-70 0-10-10-15-20-15-35 0-15 5-25 15-35 10-10 20-15 35-15z m900-150h-700c-30 0-50-20-50-50s20-50 50-50h700c30 0 50 20 50 50s-20 50-50 50z m-900-100c15 0 25 5 35 15 10 10 15 20 15 35 0 15-5 25-15 35-20 20-50 20-70 0-10-10-15-20-15-35 0-15 5-25 15-35 10-10 20-15 35-15z" horiz-adv-x="1000" />
<glyph glyph-name="icon-paid" unicode="&#xe813;" d="m975 600l0 0 0-125v-42-133-27-163c0-143-207-253-475-253-262 0-475 115-475 256v162 25 135 40 125h0c3 143 210 255 475 255s473-112 475-255z m-900-2c0-113 195-208 425-208s425 95 425 208-195 207-425 207-425-95-425-207z m850-440c-77-83-237-140-425-140-185 0-347 57-425 142v-50c0-110 198-205 425-205 230 0 425 92 425 203v50z m0 160c-77-83-237-140-425-140-185 0-347 57-425 142v-20-25c0-110 198-205 425-205 230 0 425 93 425 203v27 18z m0 162c-77-85-237-142-425-142s-347 57-425 142v-5-40c0-110 198-205 425-205 230 0 425 93 425 203v42 5z m-502-7c7-8 17-10 27-10s20 2 28 10l212 212c15 15 15 38 0 53-15 15-37 15-52 0l-188-185-72 72c-15 15-38 15-53 0-15-15-15-37 0-52l98-100z" horiz-adv-x="1000" />
<glyph glyph-name="icon-pay-due" unicode="&#xe814;" d="m643 343c130-85 157-158 157-240v-103h3c42 0 75-33 75-75s-33-75-75-75h-550c-43 0-75 32-75 75 0 40 32 72 72 75v103c0 90 25 157 158 240-105 70-158 147-158 232v125c-40 3-72 35-72 75 0 43 32 75 75 75h550c42 0 75-32 75-75s-33-75-75-75h-3v-122c0-33-12-138-157-235z m-390 407h550c15 0 25 10 25 25s-10 25-25 25h-550c-15 0-25-10-25-25s10-25 25-25z m550-800h-550c-15 0-25-10-25-25s10-25 25-25h550c15 0 25 10 25 25s-10 25-25 25z m-53 628v122h-450v-122c0-75 55-145 163-210 7-5 12-13 12-23v-7c0-10-5-18-12-23-150-90-163-145-163-215v-100h450v103c0 62-12 127-162 215-8 5-13 12-13 22v8c0 10 5 17 13 22 155 90 162 188 162 208z m-62-5c10-18 10-35 0-53-38-65-105-115-135-132-8-5-18-8-30-8 0 0 0 0 0 0-8 0-15 3-23 5-85 40-125 100-142 140-8 18-5 35 5 50 10 15 27 25 45 25h232c20 0 38-10 48-27z m-43-28c0 3-2 5-2 5h-233c0 0-2 0-2-2 0-3 0-3 0-3 15-35 47-80 117-115l0 0c0 0 0 0 3 0 22 18 85 60 117 115z m-140-390l-85-47c-17-10-25-30-20-50 5-20 23-33 43-33h170c20 0 37 13 42 33s-2 40-20 50l-85 47c-15 8-32 8-45 0z" horiz-adv-x="1000" />
<glyph glyph-name="icon-pay" unicode="&#xe815;" d="m0 3v722c0 33 10 58 33 80 47 45 127 45 132 45h660v-25-25-75c0-15-10-25-25-25s-25 10-25 25v75h-612c-18 0-70-5-95-30-13-12-18-27-18-45 0-72 113-75 115-75h743c32 0 95-25 95-115v-543c0-2 0-67-40-110-20-20-48-32-80-32h-700c-63 2-183 37-183 153z m950 322h-232c-28 0-43-27-43-52v-73c0-25 13-47 40-47h235v172z m-900-322c0-98 128-103 133-103h697c20 0 35 5 45 17 25 25 25 73 25 75v108h-235c-52 0-90 43-90 98v72c0 58 43 103 93 103h232v160c0 62-40 65-45 65h-742c-30 2-78 12-113 35v-630z m675 235c0 35 28 65 65 65s65-28 65-65-27-65-65-65-65 30-65 65z m40 0c0-13 10-25 25-25s25 10 25 25-10 25-25 25-25-13-25-25z" horiz-adv-x="1000" />
<glyph glyph-name="icon-payslip-small" unicode="&#xe816;" d="m1000 125c0-42-35-75-75-75h-850c-42 0-75 35-75 75v475c0 43 35 75 75 75h850c43 0 75-35 75-75v-475z m-400 175h350v125h-350v-125z m-550 298v-123h900v123c0 15-12 27-25 27h-852c-13 0-23-12-23-27z m23-498h477v325h-500v-300c0-12 10-25 23-25z m877 25v125h-350v-150h325c13 0 25 13 25 25z m-550 200h-250c-15 0-25-10-25-25s10-25 25-25h250c15 0 25 10 25 25s-10 25-25 25z m-100-100h-150c-15 0-25-10-25-25s10-25 25-25h150c15 0 25 10 25 25s-10 25-25 25z" horiz-adv-x="1000" />
<glyph glyph-name="icon-payslip" unicode="&#xe817;" d="m1000 85c0-47-37-85-85-85h-830c-47 0-85 38-85 85v505c0 48 38 85 85 85h830c48 0 85-37 85-85v-505z m-915-35h565v275h-600v-240c0-17 15-35 35-35z m615 450v-125h250v125h-250z m-50 0h-250v-125h250v125z m-300 0h-300v-125h300v125z m600-415v240h-250v-275h215c20 0 35 18 35 35z m-900 505v-40h900v40c0 20-15 35-35 35h-830c-20 0-35-15-35-35z m300-340h-200c-15 0-25-10-25-25s10-25 25-25h200c15 0 25 10 25 25s-10 25-25 25z m-50-100h-150c-15 0-25-10-25-25s10-25 25-25h150c15 0 25 10 25 25s-10 25-25 25z" horiz-adv-x="1000" />
<glyph glyph-name="icon-receipt-small" unicode="&#xe818;" d="m868 745l7-7v-741c0-55-45-97-97-97h-553c-55 0-100 45-100 97v741l10 7c20 18 35 30 53 43 12 10 25 17 40 32l15 13 130-110 132 110 128-110 125 110 17-13c20-15 33-25 45-35 13-12 28-22 48-40z m-43-30c-15 13-25 20-37 30-10 8-18 15-30 23l-125-110-128 110-132-110-130 110c-10-8-18-13-25-20-15-10-18-20-43-33v-718c0-25 23-47 50-47h553c27 0 47 22 47 47v718z m-525-240h225c15 0 25 10 25 25s-10 25-25 25h-225c-15 0-25-10-25-25s10-25 25-25z m400 50h-75c-15 0-25-10-25-25s10-25 25-25h75c15 0 25 10 25 25s-10 25-25 25z m-175-250h-225c-15 0-25-10-25-25s10-25 25-25h225c15 0 25 10 25 25s-10 25-25 25z m175-175h-75c-15 0-25-10-25-25s10-25 25-25h75c15 0 25 10 25 25s-10 25-25 25z m0 300h-225c-15 0-25-10-25-25s10-25 25-25h225c15 0 25 10 25 25s-10 25-25 25z m-400-50h75c15 0 25 10 25 25s-10 25-25 25h-75c-15 0-25-10-25-25s10-25 25-25z" horiz-adv-x="1000" />
<glyph glyph-name="icon-receipt" unicode="&#xe819;" d="m58 753c15 17 30 27 47 37 10 10 23 18 33 28l15 15 115-98 110 98 115-98 117 98 110-95 110 97 18-17c15-15 27-25 37-35 10-10 20-18 33-30l7-8v-783c0-50-40-90-90-90h-695c-50 0-90 40-90 90v783l8 8z m42-788c0-23 18-40 40-40h698c22 0 40 17 40 40v760c-8 8-15 15-23 20-7 5-15 13-22 20l-110-95-113 98-117-98-113 95-110-97-115 100c-7-8-15-13-22-18-13-7-23-15-33-25v-760z m125 510h275c15 0 25 10 25 25s-10 25-25 25h-275c-15 0-25-10-25-25s10-25 25-25z m375 0h150c15 0 25 10 25 25s-10 25-25 25h-150c-15 0-25-10-25-25s10-25 25-25z m-375-250h275c15 0 25 10 25 25s-10 25-25 25h-275c-15 0-25-10-25-25s10-25 25-25z m525-150h-150c-15 0-25-10-25-25s10-25 25-25h150c15 0 25 10 25 25s-10 25-25 25z m0 325h-300c-15 0-25-10-25-25s10-25 25-25h300c15 0 25 10 25 25s-10 25-25 25z m-525-50h125c15 0 25 10 25 25s-10 25-25 25h-125c-15 0-25-10-25-25s10-25 25-25z" horiz-adv-x="1000" />
<glyph glyph-name="icon-search" unicode="&#xe81a;" d="m93 43l165 165c-53 67-83 150-83 242 0 220 180 400 400 400s400-180 400-400-180-400-400-400c-65 0-127 15-180 43l-175-176c-15-15-35-22-52-22s-43 7-55 22l-20 20c-30 28-30 76 0 106z m132 407c0-192 158-350 350-350 193 0 350 158 350 350s-157 350-350 350c-192 0-350-157-350-350z m-97-478l20-20c10-10 25-10 35 0l167 168c-22 15-40 33-60 50l-162-162c-10-11-10-26 0-36z" horiz-adv-x="1000" />
<glyph glyph-name="icon-statement" unicode="&#xe81b;" d="m725 450h-450c-15 0-25-10-25-25s10-25 25-25h450c15 0 25 10 25 25s-10 25-25 25z m-275 150h100c15 0 25 10 25 25s-10 25-25 25h-100c-15 0-25-10-25-25s10-25 25-25z m275-300h-450c-15 0-25-10-25-25s10-25 25-25h450c15 0 25 10 25 25s-10 25-25 25z m0-150h-450c-15 0-25-10-25-25s10-25 25-25h450c15 0 25 10 25 25s-10 25-25 25z m200 600v-775c0-43-32-75-75-75h-700c-42 0-75 32-75 75v775c0 43 33 75 75 75h700c43 0 75-32 75-75z m-50 0c0 15-10 25-25 25h-700c-15 0-25-10-25-25v-775c0-15 10-25 25-25h700c15 0 25 10 25 25v775z" horiz-adv-x="1000" />
<glyph glyph-name="icon-support-02" unicode="&#xe81c;" d="m0 350c0 275 225 500 500 500s500-225 500-500-225-500-500-500-500 225-500 500z m348-433l55 168c-75 28-138 88-165 163l-168-55c45-128 148-231 278-276z m-90 433c0-135 110-242 242-242s243 110 243 242-110 243-243 243-242-108-242-243z m242-460c35 0 70 5 105 12l-55 171c-15-3-32-5-50-5s-32 2-50 5l-55-171c35-7 70-12 105-12z m433 305l-168 55c-30-75-90-135-165-162l55-168c128 42 230 145 278 275z m27 155c0 35-5 70-12 103l-170-55c2-15 5-33 5-48 0-17-3-37-5-55l167-55c10 38 15 73 15 110z m-305 433l-55-168c78-30 138-90 165-167l168 55c-45 130-148 232-278 280z m-155 27c-37 0-72-5-105-12l55-170c18 2 35 5 53 5s35-3 52-5l55 170c-37 7-72 12-110 12z m-435-310l168-55c27 78 90 140 165 168l-55 167c-128-45-230-147-278-280z m-25-150c0-37 5-72 13-107l167 55c-2 17-5 35-5 55 0 17 3 32 5 47l-170 55c-5-35-10-70-10-105z" horiz-adv-x="1000" />
<glyph glyph-name="icon-support" unicode="&#xe81d;" d="m368 413c20 0 37 17 37 37 0 48 43 88 93 88 25 0 52-13 67-30 10-10 20-28 15-53-2-22-10-27-37-42-33-20-78-48-95-133 0-2-3-15 0-62 0-20 17-43 37-43 0 0 0 0 3 0 20 25 37 25 35 45 0 18 0 45 0 48 10 50 32 65 60 80 27 15 65 37 72 97 5 40-7 80-35 110-30 35-77 58-125 58-90 0-167-75-167-163 2-20 20-37 40-37z m120-288c-20 0-38-17-38-37 0-20 18-38 38-38 20 0 37 18 37 38 0 20-17 37-37 37z m-488 225c0 275 225 500 500 500s500-225 500-500-225-500-500-500-500 225-500 500z m40 0c0-252 208-460 460-460s460 208 460 460-207 460-460 460-460-207-460-460z" horiz-adv-x="1000" />
<glyph glyph-name="icon-upload" unicode="&#xe81e;" d="m525 765v-450c40-10 70-47 70-90 0-52-42-95-95-95s-95 43-95 95c0 43 30 80 70 90v450l-82-82c-10-10-25-10-35 0s-10 25 0 35l125 125c10 10 25 10 35 0l125-125c10-10 10-25 0-35-5-5-10-8-18-8s-12 3-17 8l-83 82z m-25-495c-25 0-45-20-45-45s20-45 45-45 45 20 45 45-20 45-45 45z m-400 230v-575c0-43 33-75 75-75h650c43 0 75 32 75 75v575c0 43-32 75-75 75h-215c-15 0-25-10-25-25s10-25 25-25h215c15 0 25-10 25-25v-575c0-15-10-25-25-25h-650c-15 0-25 10-25 25v575c0 15 10 25 25 25h200c15 0 25 10 25 25s-10 25-25 25h-200c-42 0-75-32-75-75z" horiz-adv-x="1000" />
<glyph glyph-name="icon-user" unicode="&#xe81f;" d="m0 350c0 275 225 500 500 500s500-225 500-500-225-500-500-500-500 225-500 500z m500-460c95 0 183 30 258 77-33 76-115 238-188 258-7 3-15 10-17 18-3 7 0 17 7 25 60 57 93 112 93 157 0 110-68 200-150 200s-150-90-150-200c0-45 32-100 92-157 8-5 10-15 8-23-3-7-8-15-15-17-83-28-148-110-198-253 70-53 163-85 260-85z m-460 460c0-135 60-257 155-342 50 127 110 210 188 250-55 60-83 115-83 167 0 138 90 250 200 250s200-112 200-250c0-52-27-107-82-167 82-53 152-198 180-258 100 85 162 210 162 350 0 253-207 460-460 460-252 0-460-207-460-460z" horiz-adv-x="1000" />
<glyph glyph-name="icon-loading-dots" unicode="&#xe820;" d="m560 720l35 25c15 15 20 35 5 55-15 15-35 20-55 5l-120-95c-10-5-15-15-15-25s0-20 5-30l95-120c5-10 20-15 30-15 10 0 15 0 25 10 15 15 20 35 5 55l-30 40c130-20 235-135 235-270 0-30-5-65-15-95-10-25 5-55 30-65 5 0 10-5 15-5 20 0 40 15 45 35 15 40 20 85 20 125 5 185-135 340-310 370z m-90-550c-15 15-40 15-55 0-15-15-15-40 0-55l40-35c-130 20-230 135-230 270 0 30 5 60 15 90 10 25-5 55-30 60-25 10-55-5-65-30-10-40-20-80-20-120 0-190 140-345 320-370l-25-25c-15-15-15-40 0-55 5-5 15-10 25-10 10 0 20 5 25 10l105 110c15 15 15 40 0 55l-105 105z m-245 425c0-35 30-65 65-65s65 30 65 65-30 65-65 65-65-25-65-65z m465-435c-35 0-65-30-65-65s30-65 65-65 65 30 65 65-30 65-65 65z" horiz-adv-x="1000" />
<glyph glyph-name="icon-loading-small" unicode="&#xe821;" d="m600 795c-15 15-35 20-55 5l-120-90c-10-5-15-15-15-25 0-10 0-20 5-30l95-120c5-10 20-15 30-15 10 0 15 0 25 10 15 15 20 35 5 55l-30 40c130-20 235-135 235-270 0-80-35-155-95-205-20-20-25-50-5-70 10-10 25-15 40-15 10 0 25 5 35 10 80 70 130 175 130 280 0 185-135 340-315 370l35 25c5 5 10 30 0 45z m-20-730l-110 105c-15 15-40 15-55 0-15-15-15-40 0-55l40-35c-130 20-230 135-230 270 0 80 35 155 95 210 20 20 25 50 5 70s-50 25-70 5c-80-70-130-175-130-285 0-190 140-345 320-370l-25-25c-15-15-15-40 0-55 5-5 15-10 25-10 10 0 20 5 25 10l105 110c20 20 20 45 5 55z" horiz-adv-x="1000" />
<glyph glyph-name="icon-loading" unicode="&#xe822;" d="m518 688l42 42c10 10 10 25 0 35s-25 10-35 0l-82-82c-10-10-10-25 0-35l82-83c5-5 13-7 18-7s12 2 17 7c10 10 10 25 0 35l-40 40c150-10 268-135 268-287 0-113-68-218-170-263-13-5-18-20-13-32 5-10 13-15 23-15 2 0 7 0 10 2 122 55 200 175 200 308 0 177-143 325-320 335z m-43-550c-10 10-25 10-35 0s-10-25 0-35l40-40c-150 10-267 135-267 287 0 113 67 215 170 263 12 5 17 20 12 32-5 13-20 18-32 13-120-55-200-175-200-308 0-180 142-327 320-337l-43-43c-10-10-10-25 0-35 5-5 13-8 18-8s12 3 17 8l83 83c10 10 10 25 0 35l-83 85z" horiz-adv-x="1000" />
</font>
</defs>
</svg>
